<svg xmlns="http://www.w3.org/2000/svg" xmlns:xlink="http://www.w3.org/1999/xlink" width="500" zoomAndPan="magnify" viewBox="0 0 375 262.499992" height="350" preserveAspectRatio="xMidYMid meet" version="1.2"><defs><clipPath id="6178f235ce"><path d="M 50.332031 131.714844 L 71.132812 131.714844 L 71.132812 173.617188 L 50.332031 173.617188 Z M 50.332031 131.714844 "/></clipPath></defs><g id="ab7af23320"><path style=" stroke:none;fill-rule:nonzero;fill:#3d5940;fill-opacity:1;" d="M 105.441406 136.488281 C 110.441406 157.027344 116.441406 178.878906 129.84375 200.351562 C 139.296875 215.496094 151.183594 228.859375 164.777344 239.734375 C 166.808594 241.363281 166.339844 244.621094 163.898438 245.53125 C 119.71875 262.023438 61.953125 237.078125 27.976562 184.140625 C 10.507812 156.929688 0.417969 123.882812 3.695312 91.402344 C 5.121094 77.269531 9.144531 63.28125 16.398438 51 C 22.46875 40.714844 30.363281 24.273438 44.929688 27.382812 C 50.625 28.59375 55.507812 32.386719 59.144531 36.933594 C 68.433594 48.554688 75.398438 63.457031 82.457031 76.554688 C 92.636719 95.445312 100.371094 115.636719 105.441406 136.488281 "/><path style=" stroke:none;fill-rule:nonzero;fill:#3d5940;fill-opacity:1;" d="M 342.90625 41.347656 C 337.464844 35.222656 328.289062 34.027344 321.621094 38.785156 C 309.1875 47.65625 298.023438 58.648438 288.730469 71.261719 C 274.597656 90.445312 267.25 110.914062 260.9375 130.234375 C 247.59375 171.078125 224.539062 207.804688 193.894531 237.273438 C 192.183594 238.917969 192.683594 241.761719 194.859375 242.695312 C 237.472656 260.984375 295.710938 240.441406 333.066406 191.066406 C 371.363281 140.449219 374.542969 76.941406 342.90625 41.347656 "/><path style=" stroke:none;fill-rule:nonzero;fill:#3d5940;fill-opacity:1;" d="M 247.363281 124.328125 C 248.453125 121.527344 249.464844 118.714844 250.382812 115.886719 C 261.960938 80.234375 285.835938 48.296875 317.574219 28.179688 C 319.777344 26.785156 319.664062 23.496094 317.339844 22.320312 C 274.65625 0.78125 223.152344 21.527344 190.746094 51.988281 C 153.707031 86.804688 127.5625 147.664062 148.652344 197.402344 C 150.730469 202.304688 153.265625 207.015625 156.25 211.429688 C 166.273438 226.242188 183.277344 235.25 197.625 220.117188 C 203.4375 213.984375 206.355469 206.65625 210.207031 199.324219 C 214.785156 190.621094 219.277344 181.882812 223.699219 173.105469 C 231.691406 157.238281 240.875 141.023438 247.363281 124.328125 "/><path style=" stroke:none;fill-rule:nonzero;fill:#3d5940;fill-opacity:1;" d="M 143.617188 193.019531 C 124.074219 146.925781 145.09375 91.285156 177.757812 55.671875 C 143.160156 16.675781 94.65625 0.0351562 56.425781 13.902344 C 54.199219 14.710938 53.539062 17.519531 55.148438 19.257812 C 84.050781 50.441406 104.957031 88.425781 115.9375 129.972656 C 121.128906 149.625 127.285156 170.480469 140.296875 190.441406 C 142.328125 193.554688 144.476562 196.570312 146.710938 199.507812 C 145.59375 197.386719 144.554688 195.226562 143.617188 193.019531 "/><g clip-rule="nonzero" clip-path="url(#6178f235ce)"><path style=" stroke:none;fill-rule:nonzero;fill:#3d5940;fill-opacity:1;" d="M 50.332031 131.714844 L 71.132812 131.714844 L 71.132812 173.640625 L 50.332031 173.640625 Z M 50.332031 131.714844 "/></g></g></svg>