<svg xmlns="http://www.w3.org/2000/svg" xmlns:xlink="http://www.w3.org/1999/xlink" width="400" zoomAndPan="magnify" viewBox="0 0 300 299.999988" height="400" preserveAspectRatio="xMidYMid meet" version="1.2"><g id="45cdd5bea5"><rect x="0" width="300" y="0" height="299.999988" style="fill:#ffffff;fill-opacity:1;stroke:none;"/><rect x="0" width="300" y="0" height="299.999988" style="fill:#ffffff;fill-opacity:1;stroke:none;"/><rect x="0" width="300" y="0" height="299.999988" style="fill:#ffffff;fill-opacity:1;stroke:none;"/><path style="fill-rule:nonzero;fill:#ffffff;fill-opacity:1;stroke-width:1;stroke-linecap:butt;stroke-linejoin:miter;stroke:#000000;stroke-opacity:1;stroke-miterlimit:4;" d="M 2.000195 2.499922 L 8.999805 2.499922 M 11 2.499922 L 11.999883 2.499922 M 13.000196 2.499922 L 14.999961 2.499922 M 18.00004 2.499922 L 18.999923 2.499922 M 19.999806 2.499922 L 22.999884 2.499922 M 24.000197 2.499922 L 30.999806 2.499922 M 2.000195 3.499805 L 3.000078 3.499805 M 7.999922 3.499805 L 8.999805 3.499805 M 11.999883 3.499805 L 13.000196 3.499805 M 14.000079 3.499805 L 14.999961 3.499805 M 15.999844 3.499805 L 18.999923 3.499805 M 22.000001 3.499805 L 22.999884 3.499805 M 24.000197 3.499805 L 25.000079 3.499805 M 29.999924 3.499805 L 30.999806 3.499805 M 2.000195 4.500118 L 3.000078 4.500118 M 3.999961 4.500118 L 7.000039 4.500118 M 7.999922 4.500118 L 8.999805 4.500118 M 10.000117 4.500118 L 11 4.500118 M 11.999883 4.500118 L 13.000196 4.500118 M 15.999844 4.500118 L 18.00004 4.500118 M 21.000118 4.500118 L 22.000001 4.500118 M 24.000197 4.500118 L 25.000079 4.500118 M 25.999962 4.500118 L 29.000041 4.500118 M 29.999924 4.500118 L 30.999806 4.500118 M 2.000195 5.5 L 3.000078 5.5 M 3.999961 5.5 L 7.000039 5.5 M 7.999922 5.5 L 8.999805 5.5 M 10.000117 5.5 L 11.999883 5.5 M 13.000196 5.5 L 14.000079 5.5 M 14.999961 5.5 L 15.999844 5.5 M 18.999923 5.5 L 19.999806 5.5 M 24.000197 5.5 L 25.000079 5.5 M 25.999962 5.5 L 29.000041 5.5 M 29.999924 5.5 L 30.999806 5.5 M 2.000195 6.499883 L 3.000078 6.499883 M 3.999961 6.499883 L 7.000039 6.499883 M 7.999922 6.499883 L 8.999805 6.499883 M 10.000117 6.499883 L 11 6.499883 M 14.999961 6.499883 L 15.999844 6.499883 M 18.00004 6.499883 L 22.999884 6.499883 M 24.000197 6.499883 L 25.000079 6.499883 M 25.999962 6.499883 L 29.000041 6.499883 M 29.999924 6.499883 L 30.999806 6.499883 M 2.000195 7.500196 L 3.000078 7.500196 M 7.999922 7.500196 L 8.999805 7.500196 M 10.000117 7.500196 L 11 7.500196 M 13.000196 7.500196 L 14.000079 7.500196 M 14.999961 7.500196 L 18.00004 7.500196 M 24.000197 7.500196 L 25.000079 7.500196 M 29.999924 7.500196 L 30.999806 7.500196 M 2.000195 8.500079 L 8.999805 8.500079 M 10.000117 8.500079 L 11 8.500079 M 11.999883 8.500079 L 13.000196 8.500079 M 14.000079 8.500079 L 14.999961 8.500079 M 15.999844 8.500079 L 17.000157 8.500079 M 18.00004 8.500079 L 18.999923 8.500079 M 19.999806 8.500079 L 21.000118 8.500079 M 22.000001 8.500079 L 22.999884 8.500079 M 24.000197 8.500079 L 30.999806 8.500079 M 10.000117 9.499962 L 14.999961 9.499962 M 15.999844 9.499962 L 18.999923 9.499962 M 19.999806 9.499962 L 22.000001 9.499962 M 2.000195 10.499845 L 3.000078 10.499845 M 3.999961 10.499845 L 8.999805 10.499845 M 11 10.499845 L 13.000196 10.499845 M 14.000079 10.499845 L 15.999844 10.499845 M 17.000157 10.499845 L 21.000118 10.499845 M 22.000001 10.499845 L 22.999884 10.499845 M 24.000197 10.499845 L 29.000041 10.499845 M 3.000078 11.500157 L 3.999961 11.500157 M 4.999843 11.500157 L 7.000039 11.500157 M 8.999805 11.500157 L 10.000117 11.500157 M 13.000196 11.500157 L 14.999961 11.500157 M 15.999844 11.500157 L 17.000157 11.500157 M 18.00004 11.500157 L 26.999845 11.500157 M 29.999924 11.500157 L 30.999806 11.500157 M 2.000195 12.50004 L 3.999961 12.50004 M 6.000156 12.50004 L 8.999805 12.50004 M 10.000117 12.50004 L 11.999883 12.50004 M 13.000196 12.50004 L 14.000079 12.50004 M 17.000157 12.50004 L 18.00004 12.50004 M 18.999923 12.50004 L 19.999806 12.50004 M 22.000001 12.50004 L 24.000197 12.50004 M 25.000079 12.50004 L 26.999845 12.50004 M 2.000195 13.499923 L 3.000078 13.499923 M 6.000156 13.499923 L 7.999922 13.499923 M 8.999805 13.499923 L 11 13.499923 M 11.999883 13.499923 L 13.000196 13.499923 M 15.999844 13.499923 L 17.000157 13.499923 M 19.999806 13.499923 L 21.000118 13.499923 M 22.000001 13.499923 L 22.999884 13.499923 M 24.000197 13.499923 L 28.000158 13.499923 M 29.000041 13.499923 L 29.999924 13.499923 M 3.999961 14.499806 L 4.999843 14.499806 M 7.000039 14.499806 L 8.999805 14.499806 M 10.000117 14.499806 L 14.000079 14.499806 M 17.000157 14.499806 L 19.999806 14.499806 M 26.999845 14.499806 L 29.000041 14.499806 M 2.000195 15.500118 L 3.999961 15.500118 M 7.000039 15.500118 L 7.999922 15.500118 M 10.000117 15.500118 L 11 15.500118 M 11.999883 15.500118 L 14.000079 15.500118 M 14.999961 15.500118 L 15.999844 15.500118 M 18.00004 15.500118 L 18.999923 15.500118 M 19.999806 15.500118 L 26.999845 15.500118 M 29.999924 15.500118 L 30.999806 15.500118 M 2.000195 16.500001 L 3.000078 16.500001 M 4.999843 16.500001 L 10.000117 16.500001 M 11 16.500001 L 11.999883 16.500001 M 13.000196 16.500001 L 18.999923 16.500001 M 19.999806 16.500001 L 21.000118 16.500001 M 22.999884 16.500001 L 25.000079 16.500001 M 26.999845 16.500001 L 29.000041 16.500001 M 3.000078 17.499884 L 4.999843 17.499884 M 6.000156 17.499884 L 7.000039 17.499884 M 8.999805 17.499884 L 10.000117 17.499884 M 11.999883 17.499884 L 13.000196 17.499884 M 14.999961 17.499884 L 15.999844 17.499884 M 17.000157 17.499884 L 18.00004 17.499884 M 21.000118 17.499884 L 24.000197 17.499884 M 25.000079 17.499884 L 26.999845 17.499884 M 29.000041 17.499884 L 29.999924 17.499884 M 3.999961 18.500197 L 4.999843 18.500197 M 7.000039 18.500197 L 11 18.500197 M 11.999883 18.500197 L 13.000196 18.500197 M 14.000079 18.500197 L 14.999961 18.500197 M 15.999844 18.500197 L 18.00004 18.500197 M 18.999923 18.500197 L 19.999806 18.500197 M 22.000001 18.500197 L 22.999884 18.500197 M 26.999845 18.500197 L 29.000041 18.500197 M 2.000195 19.50008 L 3.999961 19.50008 M 8.999805 19.50008 L 10.000117 19.50008 M 11 19.50008 L 14.999961 19.50008 M 18.00004 19.50008 L 18.999923 19.50008 M 21.000118 19.50008 L 26.999845 19.50008 M 28.000158 19.50008 L 29.000041 19.50008 M 29.999924 19.50008 L 30.999806 19.50008 M 2.000195 20.499963 L 3.000078 20.499963 M 3.999961 20.499963 L 6.000156 20.499963 M 7.999922 20.499963 L 11 20.499963 M 17.000157 20.499963 L 18.00004 20.499963 M 19.999806 20.499963 L 21.000118 20.499963 M 22.999884 20.499963 L 24.000197 20.499963 M 25.000079 20.499963 L 26.999845 20.499963 M 28.000158 20.499963 L 29.000041 20.499963 M 2.000195 21.499845 L 3.000078 21.499845 M 3.999961 21.499845 L 7.000039 21.499845 M 8.999805 21.499845 L 10.000117 21.499845 M 14.000079 21.499845 L 14.999961 21.499845 M 15.999844 21.499845 L 18.00004 21.499845 M 19.999806 21.499845 L 22.999884 21.499845 M 25.999962 21.499845 L 26.999845 21.499845 M 29.000041 21.499845 L 29.999924 21.499845 M 2.000195 22.500158 L 3.000078 22.500158 M 3.999961 22.500158 L 6.000156 22.500158 M 7.999922 22.500158 L 14.000079 22.500158 M 17.000157 22.500158 L 19.999806 22.500158 M 21.000118 22.500158 L 26.999845 22.500158 M 28.000158 22.500158 L 30.999806 22.500158 M 10.000117 23.500041 L 11 23.500041 M 11.999883 23.500041 L 14.000079 23.500041 M 14.999961 23.500041 L 17.000157 23.500041 M 18.00004 23.500041 L 18.999923 23.500041 M 22.000001 23.500041 L 22.999884 23.500041 M 25.999962 23.500041 L 30.999806 23.500041 M 2.000195 24.499924 L 8.999805 24.499924 M 11 24.499924 L 13.000196 24.499924 M 14.999961 24.499924 L 18.999923 24.499924 M 19.999806 24.499924 L 22.999884 24.499924 M 24.000197 24.499924 L 25.000079 24.499924 M 25.999962 24.499924 L 29.000041 24.499924 M 2.000195 25.499807 L 3.000078 25.499807 M 7.999922 25.499807 L 8.999805 25.499807 M 10.000117 25.499807 L 11 25.499807 M 13.000196 25.499807 L 15.999844 25.499807 M 18.00004 25.499807 L 18.999923 25.499807 M 19.999806 25.499807 L 21.000118 25.499807 M 22.000001 25.499807 L 22.999884 25.499807 M 25.999962 25.499807 L 26.999845 25.499807 M 29.999924 25.499807 L 30.999806 25.499807 M 2.000195 26.500119 L 3.000078 26.500119 M 3.999961 26.500119 L 7.000039 26.500119 M 7.999922 26.500119 L 8.999805 26.500119 M 10.000117 26.500119 L 14.999961 26.500119 M 15.999844 26.500119 L 17.000157 26.500119 M 18.999923 26.500119 L 21.000118 26.500119 M 22.000001 26.500119 L 26.999845 26.500119 M 28.000158 26.500119 L 29.000041 26.500119 M 2.000195 27.500002 L 3.000078 27.500002 M 3.999961 27.500002 L 7.000039 27.500002 M 7.999922 27.500002 L 8.999805 27.500002 M 10.000117 27.500002 L 11 27.500002 M 14.000079 27.500002 L 14.999961 27.500002 M 18.999923 27.500002 L 21.000118 27.500002 M 22.000001 27.500002 L 22.999884 27.500002 M 26.999845 27.500002 L 30.999806 27.500002 M 2.000195 28.499885 L 3.000078 28.499885 M 3.999961 28.499885 L 7.000039 28.499885 M 7.999922 28.499885 L 8.999805 28.499885 M 10.000117 28.499885 L 13.000196 28.499885 M 14.999961 28.499885 L 15.999844 28.499885 M 17.000157 28.499885 L 19.999806 28.499885 M 21.000118 28.499885 L 29.999924 28.499885 M 2.000195 29.500198 L 3.000078 29.500198 M 7.999922 29.500198 L 8.999805 29.500198 M 11.999883 29.500198 L 13.000196 29.500198 M 14.000079 29.500198 L 14.999961 29.500198 M 22.000001 29.500198 L 25.999962 29.500198 M 26.999845 29.500198 L 28.000158 29.500198 M 29.000041 29.500198 L 29.999924 29.500198 M 2.000195 30.500081 L 8.999805 30.500081 M 10.000117 30.500081 L 13.000196 30.500081 M 15.999844 30.500081 L 18.00004 30.500081 M 18.999923 30.500081 L 22.000001 30.500081 M 25.999962 30.500081 L 26.999845 30.500081 M 28.000158 30.500081 L 29.000041 30.500081 " transform="matrix(9.090908,0,0,9.090908,0.000006,0)"/></g></svg>